<svg xmlns="http://www.w3.org/2000/svg" viewBox="0 0 800 450" width="100%" height="100%">
  <defs>
    <linearGradient id="aether-bg" x1="0%" y1="0%" x2="100%" y2="100%">
      <stop offset="0%" stop-color="#090d16"/>
      <stop offset="100%" stop-color="#111c2e"/>
    </linearGradient>
  </defs>
  <rect width="800" height="450" fill="url(#aether-bg)"/>
  <!-- Telemetry Charts Graphic -->
  <path d="M120 320 Q200 220 280 260 T440 180 T600 230 T720 140" fill="none" stroke="#0070d1" stroke-width="4"/>
  <path d="M120 320 Q200 220 280 260 T440 180 T600 230 T720 140 L720 350 L120 350 Z" fill="rgba(0,112,209,0.08)"/>
  <!-- Second Metric Line -->
  <path d="M120 300 Q220 270 340 290 T500 210 T660 250 T720 190" fill="none" stroke="#38bdf8" stroke-width="2" stroke-dasharray="4,4"/>
  <!-- Points -->
  <circle cx="440" cy="180" r="6" fill="#ffffff" stroke="#0070d1" stroke-width="3"/>
  <circle cx="600" cy="230" r="6" fill="#ffffff" stroke="#0070d1" stroke-width="3"/>
  <!-- APM Box -->
  <rect x="40" y="30" width="240" height="42" rx="21" fill="rgba(56,189,248,0.15)" stroke="rgba(56,189,248,0.4)" stroke-width="1"/>
  <text x="160" y="56" fill="#38bdf8" font-family="system-ui, sans-serif" font-size="13" font-weight="600" text-anchor="middle">📊 DISTRIBUTED APM MESH</text>
  <text x="400" y="390" fill="#ffffff" font-family="system-ui, sans-serif" font-size="15" font-weight="600" text-anchor="middle">OpenTelemetry Distributed Tracing &amp; ClickHouse Analytics</text>
</svg>
